<?xml version="1.0" encoding="UTF-8" standalone="no"?>
<svg
   xmlns:dc="http://purl.org/dc/elements/1.1/"
   xmlns:cc="http://creativecommons.org/ns#"
   xmlns:rdf="http://www.w3.org/1999/02/22-rdf-syntax-ns#"
   xmlns:svg="http://www.w3.org/2000/svg"
   xmlns="http://www.w3.org/2000/svg"
   xmlns:sodipodi="http://sodipodi.sourceforge.net/DTD/sodipodi-0.dtd"
   xmlns:inkscape="http://www.inkscape.org/namespaces/inkscape"
   sodipodi:docname="marie-curie.svg"
   inkscape:version="1.0 (4035a4fb49, 2020-05-01)"
   id="svg8"
   version="1.1"
   viewBox="0 0 210 297"
   height="297mm"
   width="210mm">
  <defs
     id="defs2" />
  <sodipodi:namedview
     inkscape:object-nodes="false"
     inkscape:window-maximized="1"
     inkscape:window-y="-8"
     inkscape:window-x="-8"
     inkscape:window-height="1027"
     inkscape:window-width="1920"
     showgrid="false"
     inkscape:document-rotation="0"
     inkscape:current-layer="layer3"
     inkscape:document-units="mm"
     inkscape:cy="890.85734"
     inkscape:cx="53.28042"
     inkscape:zoom="0.45254834"
     inkscape:pageshadow="2"
     inkscape:pageopacity="0.0"
     borderopacity="1.0"
     bordercolor="#666666"
     pagecolor="#ffffff"
     id="base" />
  <metadata
     id="metadata5">
    <rdf:RDF>
      <cc:Work
         rdf:about="">
        <dc:format>image/svg+xml</dc:format>
        <dc:type
           rdf:resource="http://purl.org/dc/dcmitype/StillImage" />
        <dc:title />
      </cc:Work>
    </rdf:RDF>
  </metadata>
  <g
     inkscape:groupmode="layer"
     id="layer4"
     inkscape:label="face"
     style="display:inline;opacity:1">
    <path
       style="opacity:1;fill:#ffb380;stroke:#000000;stroke-width:0;stroke-linecap:butt;stroke-linejoin:miter;stroke-miterlimit:4;stroke-dasharray:none;stroke-opacity:1"
       d="m 81.313332,199.43832 c 13.749778,17.78965 31.236328,24.56798 49.125818,30.15894 2.1101,0.97587 5.92713,1.18673 9.43574,1.53592 0.1634,-6.10443 0.37857,-12.17384 0.13176,-18.55359 l 0.82413,-3.06009 c 3.52686,-4.43513 5.09568,-9.70871 16.26702,-10.8716 4.18957,-0.0971 9.09254,-0.3995 14.26626,-0.77805 2.7999,-1.48593 5.06669,-3.59527 6.84922,-6.2729 0.0391,-3.22774 0.68925,-6.53013 -1.60061,-9.47367 -0.38141,-1.45415 -0.57728,-2.89629 -0.0283,-4.28863 l 1.6964,-1.02399 c 0.0758,-0.79974 0.36691,-0.9813 0.19327,-2.49663 -0.0975,-0.8998 -1.00412,-1.58846 -1.7283,-2.30462 1.75931,-0.98107 2.78043,-2.60142 2.68812,-5.18465 l -1.07473,-4.86328 c 0.30091,-1.33077 0.65581,-2.67162 3.62098,-4.52647 2.43067,-0.67991 4.66021,-2.05316 6.5176,-4.7074 0.20714,-2.22472 0.27499,-4.45095 -3.07766,-6.69884 l -8.69065,-11.94913 c -1.87389,-2.87336 -2.06238,-6.80303 -0.85026,-10.50395 1.54152,-4.70732 2.88196,-6.29245 2.11771,-9.04965 -3.2683,-8.69161 -5.00226,-17.606121 -11.36413,-25.847895 l -7.28398,-8.913343 -14.06827,-3.52584 -11.69011,4.909712 1.48101,22.437656 -15.84792,35.84177 -22.524472,-7.04971 c -7.27048,2.22005 -9.403832,8.4406 -13.052882,15.22448 l 12.545574,14.68928 c -3.988048,10.23689 -8.806236,19.52147 -16.14317,25.92128 4.557826,4.07245 3.517462,7.69804 1.267374,11.22489"
       id="path975"
       sodipodi:nodetypes="cccccccccccccccccccscccccccccccc" />
    <path
       sodipodi:nodetypes="ccccccccccc"
       id="path955"
       d="m 178.75288,147.47163 c -2.84678,0.97971 -5.65427,1.96925 -6.43587,3.46523 -1.40116,2.48689 0.86194,1.78752 2.3269,1.78223 2.72557,0.0514 5.8072,-0.87952 9.06035,-2.27711 h 3.01914 c 1.29068,1.08908 0.29872,2.17832 -0.29706,3.26742 -4.24454,2.48567 -7.3032,5.05584 -9.7033,7.67343 -0.976,0.75451 -1.82214,1.98771 -3.16837,1.38647 -3.54211,-0.43038 -5.98709,-1.7388 -6.23764,-4.80255 -0.41185,-3.21762 -0.53479,-6.345 1.13877,-8.91092 0.39023,-1.56134 7.56866,-4.95535 10.29708,-1.5842 z"
       style="fill:#ff7f2a;fill-opacity:0.286275;stroke:#000000;stroke-width:0;stroke-linecap:butt;stroke-linejoin:miter;stroke-miterlimit:4;stroke-dasharray:none;stroke-opacity:1" />
    <path
       sodipodi:nodetypes="cccccccccccc"
       id="path868"
       d="m 168.98836,122.33836 c -2.28561,1.04519 -3.90986,1.42864 -5.35573,2.66056 -2.11754,-0.16055 -4.57445,0.10753 -7.24622,0.59492 -3.28478,1.50407 -5.48533,3.45574 -7.00103,5.14586 -2.32252,2.27987 -2.60407,2.96166 -3.85065,5.07597 l 6.03947,0.5668 c 4.27331,0.29149 7.6111,1.20769 11.38637,1.83112 1.78625,-1.0963 3.23098,-2.44118 4.50511,-3.91053 l 3.90346,-3.59835 c 1.52445,-2.80045 1.91082,-5.60091 2.45003,-8.40171 l -0.069,-1.82021 z"
       style="fill:#f9a770;fill-opacity:1;stroke:#000000;stroke-width:0;stroke-linecap:butt;stroke-linejoin:miter;stroke-miterlimit:4;stroke-dasharray:none;stroke-opacity:1" />
    <path
       style="display:inline;opacity:1;fill:#d38d5f;fill-opacity:1;stroke:#000000;stroke-width:0;stroke-linecap:butt;stroke-linejoin:miter;stroke-miterlimit:4;stroke-dasharray:none;stroke-opacity:1"
       d="m 96.728751,155.55901 c -1.583252,-1.88442 -3.393003,-3.25834 -4.672902,-5.82516 0.386119,-1.99785 0.06891,-3.71416 1.536347,-6.14512 1.254879,-1.34414 2.510589,-2.6881 6.593074,-4.03237 2.37383,0.58833 3.78953,1.49639 4.35264,2.68823 0.27448,2.00583 0.15172,4.01162 -0.51203,6.01712 -1.29325,0.80728 -2.57959,1.61852 -4.288636,2.17631 -1.111363,-0.41115 -1.829758,-1.14961 -2.432433,-1.9841 1.782951,-1.49078 3.717759,-2.45776 4.544789,-4.48117 -0.73434,-0.7782 -2.257713,-1.01019 -4.096734,-1.02378 -1.320887,0.75749 -2.040525,1.59078 -2.688504,2.43212 -0.754555,1.88372 -0.776805,3.70647 -0.511689,5.50505 0.47082,1.173 1.727986,2.23418 2.752138,3.32843 0.181469,1.19671 -0.279588,1.10548 -0.57606,1.34444 z"
       id="path965"
       sodipodi:nodetypes="cccccccccccccc" />
    <path
       style="display:inline;opacity:1;fill:#d38d5f;stroke:#000000;stroke-width:0;stroke-linecap:butt;stroke-linejoin:miter;stroke-miterlimit:4;stroke-dasharray:none;stroke-opacity:1"
       d="m 104.47449,145.54134 c 0.50602,0.33572 0.78415,0.74834 1.75994,0.92824 0.76951,-0.17922 1.30592,-0.7462 1.8241,-1.34455 1.26268,-0.67897 0.89262,0.17309 0.86447,0.70408 -0.33153,1.15871 -0.90764,2.0415 -1.92084,2.4326 0.29125,1.63305 0.61755,2.81575 1.31259,4.38449 0.20706,0.80903 0.0794,1.50644 -0.22508,2.14462 2.13558,0.33378 3.21002,0.84498 4.35267,1.34431 0.0879,0.51254 -0.0449,1.02381 -0.64007,1.53623 -1.10523,-0.77059 -2.75716,-1.49222 -4.80091,-2.17644 -2.16608,-0.15481 -3.76597,-0.59192 -5.44072,-0.99204 2.28447,-1.80245 2.40509,-2.78624 4.03236,-5.72896 -0.66652,-0.64299 -0.96265,-1.47069 -1.11991,-2.36858 z"
       id="path967"
       sodipodi:nodetypes="cccccccccccccc" />
    <path
       sodipodi:nodetypes="cccccc"
       id="path860"
       d="m 164.34689,126.53026 c -2.42321,1.17437 -4.40879,2.7872 -6.03974,4.75314 -2.24447,2.27062 -4.48829,3.88271 -6.73295,5.09907 4.15768,0.15174 8.19857,1.64479 11.38637,1.83112 2.43514,-1.30326 3.32376,-2.60697 4.50511,-3.91053 0.55775,-3.18299 -1.38528,-5.56103 -3.11879,-7.7728 z"
       style="fill:#e58647;fill-opacity:1;stroke:#000000;stroke-width:0;stroke-linecap:butt;stroke-linejoin:miter;stroke-miterlimit:4;stroke-dasharray:none;stroke-opacity:1" />
    <path
       sodipodi:nodetypes="cccccccccccacc"
       id="path862"
       d="m 163.87786,127.55447 c 0.44804,0.39386 0.64503,0.80784 0.80486,1.22501 -1.38476,0.49019 -2.16321,1.0414 -3.11524,1.57516 -1.24696,0.80523 -2.34649,1.61012 -3.22082,2.41557 l -3.08044,2.20534 c -0.36293,0.32143 -0.5846,0.58516 -0.56889,0.75327 1.86372,0.3465 4.40811,0.28324 6.69529,0.40165 1.38889,-0.1862 2.54299,-0.70095 3.46584,-1.53984 0.71925,-0.84206 1.0347,-1.92735 1.2944,-3.0456 0.0469,-0.96296 -0.29526,-1.99042 -0.80471,-3.04587 -0.16285,-0.53736 -0.76336,-0.82417 -1.22522,-1.18988 0,0 -0.17382,0.001 -0.22355,0.0596 -0.0381,0.0452 -0.008,0.18452 -0.008,0.18452 z"
       style="fill:#f8995a;fill-opacity:1;stroke:#000000;stroke-width:0;stroke-linecap:butt;stroke-linejoin:miter;stroke-miterlimit:4;stroke-dasharray:none;stroke-opacity:1" />
    <path
       sodipodi:nodetypes="cccc"
       id="path864"
       d="m 157.61171,134.55541 c 1.49003,0.43919 3.22547,0.60214 5.25094,0.38525 0.70732,-1.38137 0.6499,-2.77401 -0.42011,-4.20096 -2.15918,1.04021 -3.51304,2.38918 -4.83083,3.81571 z"
       style="fill:#ececec;stroke:#000000;stroke-width:0;stroke-linecap:butt;stroke-linejoin:miter;stroke-miterlimit:4;stroke-dasharray:none;stroke-opacity:1" />
    <path
       sodipodi:nodetypes="ccc"
       id="path866"
       d="m 162.44254,130.7397 c 1.26643,1.59892 1.04896,3.02185 0.42011,4.20096 -0.76557,-1.31092 -1.46491,-2.63135 -0.42011,-4.20096 z"
       style="fill:#1a1a1a;stroke:#000000;stroke-width:0;stroke-linecap:butt;stroke-linejoin:miter;stroke-miterlimit:4;stroke-dasharray:none;stroke-opacity:1" />
    <path
       sodipodi:nodetypes="cccccc"
       id="path950"
       d="m 159.68455,130.12735 c -2.70532,2.7363 -5.34481,4.64837 -7.97419,6.42226 l 0.62795,-0.006 c 3.42758,-1.87968 6.28758,-4.55542 9.24984,-7.0873 0.87531,-1.5662 -0.20379,-0.80275 -0.95117,-0.43306 z"
       style="fill:#a05a2c;stroke:#000000;stroke-width:0;stroke-linecap:butt;stroke-linejoin:miter;stroke-miterlimit:4;stroke-dasharray:none;stroke-opacity:1" />
    <path
       sodipodi:nodetypes="ccccccccccccc"
       id="path952"
       d="m 178.22959,147.43758 c -2.09845,0.006 -3.19979,-0.38206 -7.35082,0.49013 -1.48735,1.64257 -1.9644,3.37748 -2.45015,5.11014 -0.57315,3.05293 0.18301,3.80923 0.77021,5.28621 l 2.52017,1.92559 c 1.45437,0.81722 3.9451,1.8385 5.53093,-0.0695 0.13792,-2.09505 1.6141,-3.59703 5.11065,-4.20047 0.2584,-0.40392 0.76367,-0.73254 0.13818,-1.40024 -3.34143,-1.73241 -5.74791,-0.34911 -7.9817,1.6101 l -2.17035,1.26043 c -0.69056,-2.5685 -1.62133,-3.39091 -2.52016,-4.90092 0.20466,-1.33067 0.36647,-2.67334 1.75036,-3.64056 1.50067,-1.06402 4.30176,-1.08604 6.65092,-1.47043 z"
       style="fill:#ed9052;fill-opacity:0.439216;stroke:#000000;stroke-width:0;stroke-linecap:butt;stroke-linejoin:miter;stroke-miterlimit:4;stroke-dasharray:none;stroke-opacity:1" />
    <path
       sodipodi:nodetypes="ccccc"
       id="path1053"
       d="m 166.22803,173.01668 c 2.40469,-1.90225 6.12614,-5.01922 10.14844,-5.99028 2.29239,0.6509 1.8955,1.68641 2.52482,2.57416 -0.5814,1.46097 -1.39899,2.13593 -2.37623,2.27736 -4.29586,-0.002 -7.11602,0.64757 -10.29703,1.13876 z"
       style="fill:#ff2a2a;stroke:#000000;stroke-width:0;stroke-linecap:butt;stroke-linejoin:miter;stroke-miterlimit:4;stroke-dasharray:none;stroke-opacity:1" />
    <path
       sodipodi:nodetypes="cccc"
       id="path1055"
       d="m 166.12906,173.14028 c 3.76301,1.23032 6.89688,2.71988 12.02953,3.51505 0.96499,-1.56118 0.61042,-3.15068 -1.45987,-4.77741 -3.75757,-6.1e-4 -7.12533,0.70021 -10.56966,1.26236 z"
       style="fill:#ff2a2a;stroke:#000000;stroke-width:0;stroke-linecap:butt;stroke-linejoin:miter;stroke-miterlimit:4;stroke-dasharray:none;stroke-opacity:1" />
    <path
       sodipodi:nodetypes="ccccccccccccccccscccc"
       id="path1057"
       d="m 105.48454,156.67956 c 0.9769,0.94536 1.50683,1.93541 3.06971,2.82193 0.54258,0.43737 1.35777,0.5485 2.22755,0.59406 1.09401,-0.32019 1.58345,-0.82201 2.0299,-1.33634 l -0.99061,-1.33699 0.74285,-0.98998 c 0.70383,0.56782 1.0411,1.08256 1.28685,1.58402 -0.30681,2.2034 -0.25769,3.22114 0.5943,5.34663 -0.10476,2.55919 -3.61274,4.39011 -5.44588,6.0395 -4.83434,-1.81164 -7.99003,-4.52821 -11.336489,-8.21757 -7.407751,-3.65846 -8.583517,-10.32268 -10.000277,-14.15884 0.260062,-6.57527 2.696764,-8.15642 5.148796,-9.70314 l 5.147905,-2.42621 c -6.900843,5.898 -7.827703,5.94328 -7.821394,12.8225 1.480713,5.23064 4.149321,9.58479 8.663516,12.57445 2.328663,2.39003 5.092503,4.6869 9.257513,6.68344 0.5954,1.11629 5.80351,-3.25281 5.14858,-4.15866 -0.11989,-0.16653 -0.69295,-2.67345 -0.69295,-2.67345 -1.76716,1.30747 -3.67288,0.76038 -5.39662,-0.0975 -0.83344,-1.0771 -1.40574,-2.05832 -1.63325,-3.36685 z"
       style="fill:#d38d5f;fill-opacity:1;stroke:#000000;stroke-width:0;stroke-linecap:butt;stroke-linejoin:miter;stroke-miterlimit:4;stroke-dasharray:none;stroke-opacity:1" />
    <path
       sodipodi:nodetypes="ccccccccccccccc"
       id="path1059"
       d="m 109.98972,169.6503 c 7.62375,8.44878 12.99467,17.64868 24.95074,24.65381 7.47034,1.24208 13.22585,2.02176 22.2774,1.68278 -7.59823,0.0877 -12.68513,5.72172 -18.31696,14.25791 -4.22624,6.82601 -8.09477,7.94269 -12.07942,10.89126 2.93919,2.53813 3.17627,5.32155 3.26753,8.11878 -14.69315,-7.13856 -22.25403,-2.67086 -49.109722,-29.60395 5.568558,-12.87657 11.772265,-25.87994 16.138921,-38.51555 3.670861,5.84168 5.697891,11.68335 6.732691,17.52499 0.16847,7.23092 -2.5852,11.54065 -4.950748,16.23774 2.148088,3.18754 4.341298,6.32498 8.812188,6.93046 4.99197,4.73696 5.11937,8.14738 7.52475,12.17933 1.54243,4.19871 5.09653,6.38808 9.80232,7.42542 1.51145,-5.74285 4.66169,-11.48564 3.56511,-17.22905 -9.19861,-11.51746 -12.70399,-23.0358 -18.6148,-34.55393 z"
       style="fill:#ed9052;fill-opacity:0.301961;stroke:#000000;stroke-width:0;stroke-linecap:butt;stroke-linejoin:miter;stroke-miterlimit:4;stroke-dasharray:none;stroke-opacity:1" />
    <path
       sodipodi:nodetypes="cccccccccccc"
       id="path1061"
       d="m 129.69206,144.10515 26.33763,6.73276 c 3.46854,11.64437 2.85607,20.22783 0,27.12911 8.41009,3.17621 13.9468,6.92686 18.4162,10.8915 1.00559,1.76634 1.89936,3.486 -0.19759,3.95998 -6.18065,4.56355 -10.60082,2.52513 -15.84177,3.56494 -9.57983,-6.06863 -19.28035,-11.62424 -29.90142,-13.26766 -6.94463,-5.41288 -13.04032,-10.82517 -16.83209,-16.23801 4.18087,-1.59135 4.92743,-5.47214 2.77244,-11.28675 0.92388,-3.7803 3.42478,-7.35434 -1.38628,-11.88188 5.08601,-1.64967 10.75107,-3.0878 13.06961,-5.74258 z"
       style="fill:#ed9052;fill-opacity:0.313725;stroke:#000000;stroke-width:0;stroke-linecap:butt;stroke-linejoin:miter;stroke-miterlimit:4;stroke-dasharray:none;stroke-opacity:1" />
    <path
       sodipodi:nodetypes="cccccccc"
       id="path1063"
       d="m 164.64799,174.60207 c 2.93935,-0.48758 7.00831,1.64015 11.41203,2.10013 -1.08762,0.91211 -2.69283,0.95066 -2.94076,2.0307 1.90003,0.53653 1.45649,1.07348 1.60995,1.61014 l -3.99029,0.21008 -2.38062,-0.63008 c -2.26222,-2.10206 -3.1547,-2.23883 -3.64038,-3.78069 -0.39418,-0.51308 -0.42257,-1.02674 -0.0676,-1.53994 z"
       style="fill:#f9a871;fill-opacity:1;stroke:#000000;stroke-width:0;stroke-linecap:butt;stroke-linejoin:miter;stroke-miterlimit:4;stroke-dasharray:none;stroke-opacity:1" />
    <path
       sodipodi:nodetypes="cccccc"
       id="path1065"
       d="m 137.21759,98.361784 c 9.83248,3.277256 15.34842,8.320966 19.40626,13.960356 1.70733,1.84354 1.80861,3.98513 2.37615,6.04019 -5.89635,5.25278 -10.88881,8.24456 -15.74267,10.8914 -6.04675,2.67726 -11.08464,4.5268 -16.43585,6.63364 -4.98331,-13.47804 -0.7181,-25.89466 10.39611,-37.525586 z"
       style="fill:#ed9052;fill-opacity:0.333333;stroke:#000000;stroke-width:0;stroke-linecap:butt;stroke-linejoin:miter;stroke-miterlimit:4;stroke-dasharray:none;stroke-opacity:1" />
  </g>
  <g
     inkscape:groupmode="layer"
     id="layer3"
     inkscape:label="hair"
     style="display:inline;opacity:1">
    <path
       style="opacity:1;fill:#333333;fill-opacity:1;stroke:#000000;stroke-width:0;stroke-linecap:butt;stroke-linejoin:miter;stroke-miterlimit:4;stroke-dasharray:none;stroke-opacity:1"
       d="m 165.40705,86.867788 c 2.29118,-3.161502 5.71413,-3.211985 6.90563,-4.811438 2.68414,-3.604735 5.42133,-6.83102 1.60714,-13.063641 -7.86579,-8.48461 -12.47084,-17.21062 -26.25218,-25.256674 C 141.3383,40.283844 135.13839,36.815493 126.93749,33.59697 111.4891,32.11449 99.562457,37.147228 88.917025,44.550403 80.454253,49.51671 74.192331,55.394019 67.880511,60.271573 c -8.786544,6.790053 -13.409146,13.859303 -18.61319,20.941516 -3.807385,12.220477 -7.512309,21.398141 -6.323613,43.007371 -0.07282,6.48568 0.02958,13.58218 3.698428,19.00242 l 11.22504,26.61391 3.892583,6.97057 c 4.585949,4.08496 9.874449,8.03831 18.286013,11.40607 1.319796,0.93105 2.5621,2.12145 3.168304,5.43141 5.032513,-10.48018 10.975572,-19.65954 14.484007,-32.31731 -6.08096,-4.51282 -7.740724,-9.28592 -9.867267,-14.03126 -0.684243,-3.47218 1.874644,-7.96818 5.06944,-9.77678 4.209913,-2.38272 6.207633,-4.19617 14.483744,0.90516 1.56022,-0.3307 2.71925,2.14898 3.80224,5.16026 0,0 13.35831,-1.94498 16.02276,-7.15164 3.00675,-5.87525 0.009,-14.40151 5.70313,-21.72601 0.87732,1.50102 7.32951,-9.19137 6.3367,-10.3199 -0.8092,-0.91887 -0.6804,-15.027092 -0.27153,-15.027092 0.026,-2.511895 0.54047,-4.849835 -1.35802,-6.879894 3.85125,-1.751437 5.14175,-5.530213 14.30298,-3.077715 2.1164,1.387291 3.49601,2.897497 4.16388,4.526293 0.77649,-2.16323 2.0102,-3.18314 3.25909,-4.16415 2.59836,1.438529 3.69342,3.599072 6.06182,7.102986 z"
       id="path25"
       sodipodi:nodetypes="csccccscccccccccaccscscccccc" />
    <path
       style="fill:#666666;fill-opacity:1;stroke:#000000;stroke-width:0;stroke-linecap:butt;stroke-linejoin:miter;stroke-miterlimit:4;stroke-dasharray:none;stroke-opacity:1"
       d="m 57.915685,89.454742 c 4.158909,2.52415 12.172349,8.052511 12.172349,8.052511 -7.220718,1.391051 -13.557879,1.574314 -18.829128,5.431637 -1.931507,1.41381 -3.983098,5.97494 -3.983098,5.97494 0,0 11.775612,-3.80356 17.878588,-3.98335 5.576018,-0.16399 10.94236,2.6844 16.520767,2.6706 2.202472,-0.002 4.372033,-1.58364 6.517709,-1.08634 10.109956,2.34247 19.284908,7.64574 28.967928,5.8387 4.08142,-0.76145 7.07279,-4.35622 10.5008,-6.69866 1.60475,-1.09643 4.70726,-3.43997 4.70726,-3.43997 -2.73575,-4.140439 -4.31545,-8.440562 -10.3197,-12.130444 1.44438,-2.699502 4.95681,-4.661184 9.77665,-6.155414 2.12479,-0.387224 -12.25027,-4.053468 -14.67116,-6.628977 -5.01482,-4.370503 -1.47636,-4.57406 -7.51367,-6.044889 -4.18852,-2.292845 0.99345,-4.586276 -5.69654,-6.879588 0,0 -7.434029,-3.020563 -8.14744,-2.896934 -1.994717,0.346661 -8.689416,-5.464454 -8.147099,-5.612389 -0.513,-3.82693 2.840275,-4.796301 6.155489,-5.793659 2.542689,2.110937 4.904381,4.252158 5.431552,6.699097 0.123579,3.12181 1.822688,3.721808 3.621128,4.164215 1.69865,-4.100944 4.63425,-6.31 9.2332,-5.974639 2.45486,2.194132 3.38375,4.515611 3.80265,6.879431 1.94377,-2.193541 4.79746,-3.341221 10.1381,-1.629154 3.32129,2.073651 6.65026,4.028055 10.13895,3.258861 3.02732,-1.404546 6.196,-3.283975 8.69045,-2.896855 1.35148,-0.901206 8.68952,1.82875 12.49228,3.983083 2.93907,1.665034 7.60403,6.698531 7.60403,6.698531 l -5.6125,8.509716 7.2841,8.913343 c 0.99873,0.648846 0.71907,-0.406278 5.18407,-6.283416 1.8186,-2.65306 4.29272,-4.989254 3.77642,-8.769451 l -2.66593,-6.171775 -15.00115,-16.360108 -10.11351,-7.296883 3.32846,7.296883 -13.82631,-11.778024 1.53641,4.608752 -6.27316,-4.224712 3.45704,8.193415 -1.66483,3.072757 -1.4081,-5.249195 -8.57765,-8.06507 -0.76779,7.553117 -5.88914,0.127077 0.25767,3.840627 -4.60884,0.640063 -6.91302,-5.377031 -11.906326,0.257679 -5.63479,-0.141097 -3.070262,2.19025 -3.072688,8.57727 -4.992694,3.072564 2.976388,4.480415 0.864257,3.969116 c -1.484176,2.352695 -3.469644,3.828346 -5.632994,4.992658 -0.500958,0.651806 2.850159,2.221574 4.448696,3.040502 3.039608,1.557238 10.103087,3.227745 9.633581,3.488514 l -8.577278,1.152356 2.048527,4.096727 7.424908,7.041057 7.937435,3.968501 -8.961834,0.640236 15.362744,4.480455 c 3.96203,0.003 8.66324,-0.907099 11.39359,0.640396 3.02703,0.79905 3.17836,1.95018 4.60888,2.94464 -1.51805,1.95479 -3.8184,3.46299 -6.5289,4.73714 l -16.898616,-1.40861 c 0,0 -9.14853,-3.95583 -14.007527,-4.85724 -3.886795,-0.72059 -11.852774,-0.39185 -11.852774,-0.39185 1.383333,-1.514213 1.713902,-2.878477 1.92022,-4.224769 0,0 -7.067406,-6.710276 -11.457841,-8.577402 -2.685764,-1.141974 -7.34493,-1.806848 -8.641395,-1.40806 0,0 2.746365,1.45433 4.074004,2.259768 z"
       id="path954"
       sodipodi:nodetypes="acacaasaaccccccscccccccccacccccccccccccccccccccccccccccacccccccccccaccaca" />
  </g>
  <g
     style="display:inline;opacity:1"
     inkscape:label="costume"
     id="layer5"
     inkscape:groupmode="layer">
    <path
       sodipodi:nodetypes="cccccccccccc"
       id="path871"
       d="m 41.57282,224.0072 c -9.046656,6.02938 -12.740998,9.45095 -15.44583,13.36744 C 6.1714072,259.84481 -2.524883,282.49073 0.63199123,305.70731 L 209.94558,308.60406 c -0.50577,-8.00446 -2.27143,-16.00935 -5.39135,-24.01407 -0.075,-3.11948 -0.22018,-6.17424 -0.56017,-9.03143 -1.87636,-9.56921 -3.89069,-19.06001 -8.33112,-27.16446 -3.66795,-10.40841 -8.40389,-15.20972 -13.09826,-20.22818 -8.87783,-6.89468 -17.75601,-7.50366 -26.63383,-9.70329 l -14.89782,-8.85771 c -2.19057,2.09497 -0.16858,15.63006 -1.17822,20.89261 -33.43046,8.24066 -80.788473,-15.57925 -98.28199,-6.49033 z"
       style="fill:#000000;stroke:#000000;stroke-width:0;stroke-linecap:butt;stroke-linejoin:miter;stroke-miterlimit:4;stroke-dasharray:none;stroke-opacity:1" />
    <path
       sodipodi:nodetypes="cccccccccccccc"
       id="path856"
       d="m 81.276247,199.2544 c -20.970993,5.54327 -28.596333,15.75733 -39.703427,24.7528 26.211804,16.20565 51.196408,33.40493 82.67447,45.34738 8.06652,13.03611 13.98888,26.07296 20.29764,39.10912 l 59.70331,-0.19739 -5.64341,-15.24775 c -2.44185,-7.56929 -5.01077,-15.05365 -9.01018,-21.58459 l -13.16931,-20.6931 c -5.47026,-12.17929 -11.39463,-23.85122 -21.28655,-31.08981 -5.52428,-2.98678 -11.51545,-5.8037 -14.25768,-9.80203 l -0.99025,1.28704 c 2.08398,2.66648 3.60918,5.48819 7.22787,7.72294 0.13483,3.53094 -4.2989,7.76495 -7.32691,11.78243 -25.62807,-1.97571 -44.666497,-15.24994 -58.515573,-31.38656 z"
       style="fill:#e6e6e6;stroke:#000000;stroke-width:0.716899px;stroke-linecap:butt;stroke-linejoin:miter;stroke-opacity:1" />
    <path
       sodipodi:nodetypes="ccccccccccccccc"
       id="path858"
       d="m 73.632795,201.4156 -3.920506,2.10121 c 8.845153,13.15989 22.441564,20.17094 35.623821,27.71873 l 31.28732,10.49476 8.02003,15.94096 18.11915,30.29694 8.41601,19.90176 1.88108,0.19751 -7.12859,-16.63402 c -4.65351,-8.61409 -9.30726,-16.84581 -13.95998,-25.84217 l -9.80341,-15.94053 -4.85099,-9.60433 -19.10916,-5.94038 -15.0499,-6.23784 C 89.930868,221.30787 78.972565,213.23489 73.632795,201.41526 Z"
       style="fill:#1a1a1a;stroke:#000000;stroke-width:0.716899px;stroke-linecap:butt;stroke-linejoin:miter;stroke-opacity:1" />
    <path
       sodipodi:nodetypes="ccccccc"
       id="path861"
       d="m 60.780976,208.46239 c 25.572172,21.90441 45.325634,33.83917 72.278234,41.08985 12.22362,19.75275 21.59952,39.09832 31.30861,58.49174 l -3.36038,0.2803 c -8.5924,-17.9467 -15.4014,-37.43612 -28.8449,-55.72941 C 98.105517,240.31593 80.43005,225.47284 57.950198,210.16794 Z"
       style="fill:#000000;stroke:#000000;stroke-width:0.716899px;stroke-linecap:butt;stroke-linejoin:miter;stroke-opacity:1" />
    <path
       sodipodi:nodetypes="ccccccc"
       id="path863"
       d="m 51.089154,216.04906 -3.080509,2.59034 c 24.269525,16.12647 48.713649,32.15322 80.653305,43.89701 l 22.9637,45.92746 3.36049,-0.13784 C 145.48699,291.53118 136.68066,275.23277 129.78198,260.2968 99.07329,248.07891 73.213737,233.11922 51.089154,216.04949 Z"
       style="fill:#000000;stroke:#000000;stroke-width:0.716899px;stroke-linecap:butt;stroke-linejoin:miter;stroke-opacity:1" />
    <path
       sodipodi:nodetypes="ccccccccccccccc"
       id="path865"
       d="m 143.01445,213.03911 c 0.56001,1.18889 10.01171,10.8511 10.01171,10.8511 1.59251,5.89307 -3.02377,8.44272 -5.95119,11.90166 l -2.17047,2.52094 c 4.34146,7.63192 9.42354,16.00418 14.49279,24.36415 l 10.43135,12.60162 9.10131,17.15304 6.51107,15.96247 2.31078,0.1387 c -4.12902,-9.5006 -8.42842,-20.87641 -12.32241,-27.7942 -4.94715,-7.79621 -9.89497,-16.1581 -14.84244,-21.70343 -4.98652,-8.05154 -8.33451,-14.69882 -10.71138,-20.51394 2.49402,-3.56322 6.62666,-5.25546 6.79109,-11.48115 -1.65459,-2.52311 -2.93394,-4.82274 -7.28128,-8.96138 z"
       style="fill:#000000;stroke:#000000;stroke-width:0.716899px;stroke-linecap:butt;stroke-linejoin:miter;stroke-opacity:1" />
    <path
       sodipodi:nodetypes="ccccccccccc"
       id="path867"
       d="m 157.64679,232.15105 c 3.84279,4.35655 3.94247,8.47922 1.82039,12.46268 4.10981,5.9594 7.11471,11.66575 10.08164,17.36223 7.69781,6.30176 9.24149,13.16263 13.86238,19.74372 4.64807,8.83294 7.22257,17.87273 10.08146,26.88431 l 1.9603,-0.27971 c -3.28417,-9.42847 -6.52047,-18.85657 -11.62191,-28.28488 -5.54698,-8.86807 -10.32396,-17.73619 -17.22264,-26.60449 l -4.90092,-8.68149 c 2.75811,-4.3408 0.20531,-8.68126 -2.52031,-13.02209 z"
       style="fill:#000000;stroke:#000000;stroke-width:0.716899px;stroke-linecap:butt;stroke-linejoin:miter;stroke-opacity:1" />
    <path
       sodipodi:nodetypes="cccccc"
       id="path873"
       d="m 46.748412,238.73244 c 13.285698,11.15506 24.808529,22.31053 41.866975,33.46568 3.676994,-1.74207 10.434723,-2.54763 22.683473,-1.68064 -1.45919,-2.31021 -0.36736,-3.89201 -6.58081,-7.56097 -4.22756,-1.40795 -9.104249,-2.74308 -16.662845,-3.7803 -8.13,-8.35251 -25.284373,-14.24384 -41.306793,-20.44377 z"
       style="fill:#333333;stroke:#000000;stroke-width:0.716899px;stroke-linecap:butt;stroke-linejoin:miter;stroke-opacity:1" />
    <path
       id="path875"
       d="m 114.65977,279.75955 2.1,10.2208 4.90088,18.34393 18.48318,0.1381 -7.42112,-23.94347 c 0,0 -4.62081,-2.52111 -5.32102,-2.66111 -0.70031,-0.13796 -4.48082,-4.90069 -4.48082,-4.90069 z"
       style="fill:#1a1a1a;stroke:#000000;stroke-width:0.716899px;stroke-linecap:butt;stroke-linejoin:miter;stroke-opacity:1" />
  </g>
</svg>
